# xmcd
#
# Track frame offsets:
#	150
#	19007
#	33165
#	56840
#	69350
#	86395
#	105675
#	121430
#	139375
#	166457
#	191620
#	213775
#
# Disc length: 3081 seconds
# Revision: 3
# Processed by: cddbd v1.5.2PL0 Copyright (c) Steve Scherf et al.
# Submitted via: dBpowerAMP V12.0
#
DISCID=a20c070c
DTITLE=Jimmy Dawkins - Fast Fingers
DYEAR=1969
DGENRE=Blues
TTITLE0=It Serves Me Right to Suffer
TTITLE1=I Wonder Why
TTITLE2=I'm Good for Nothing
TTITLE3=Triple Trebles
TTITLE4=I Finally Learned a Lesson
TTITLE5=You Got to Keep on Trying
TTITLE6=Night Rock
TTITLE7=Little Angel Child
TTITLE8=I Don't Know What Love Is
TTITLE9=Breaking Down
TTITLE10=Sad and Blues
TTITLE11=Back Home Blues
EXTD=
EXTT0=
EXTT1=
EXTT2=
EXTT3=
EXTT4=
EXTT5=
EXTT6=
EXTT7=
EXTT8=
EXTT9=
EXTT10=
EXTT11=
PLAYORDER=
